<svg width="40" height="40" viewBox="0 0 40 40" fill="none" xmlns="http://www.w3.org/2000/svg">
<g clip-path="url(#clip0_22_2)">
<path d="M10.48 14.36C10.2933 14.0667 10.12 13.6667 9.96 13.16C9.8 12.6533 9.72 12.12 9.72 11.56C9.72 10.52 9.94667 9.77333 10.4 9.32C10.88 8.86667 11.4933 8.64 12.24 8.64H29.68C29.8667 8.93333 30.04 9.33333 30.2 9.84C30.36 10.3467 30.44 10.88 30.44 11.44C30.44 12.48 30.2 13.2267 29.72 13.68C29.2667 14.1333 28.6667 14.36 27.92 14.36H23.48V32.84C23.1867 32.92 22.72 33 22.08 33.08C21.4667 33.16 20.8533 33.2 20.24 33.2C19.6267 33.2 19.08 33.1467 18.6 33.04C18.1467 32.96 17.76 32.8 17.44 32.56C17.12 32.32 16.88 31.9867 16.72 31.56C16.56 31.1333 16.48 30.5733 16.48 29.88V14.36H10.48Z" fill="#FF7F50"/>
</g>
<defs>
<clipPath id="clip0_22_2">
<rect width="40" height="40" fill="white"/>
</clipPath>
</defs>
</svg>
